<?xml version="1.0" encoding="UTF-8"?>
<svg width="840.84" height="818.19" viewBox="90.657 99.905 840.84 818.19" xmlns="http://www.w3.org/2000/svg">
    <path id="DS" fill="#ffffff" stroke="none" d="
M 328.226 734.000 L 184.892 734.000 L 184.892 284.000 L 328.226 284.000 Q 359.150 284.611 379.691 293.769 Q 414.678 309.339 436.348 350.859 Q 453.729 384.441 460.049 423.518 Q 466.369 462.596 466.369 498.009 Q 466.369 587.765 439.734 650.045 Q 403.618 734.000 328.226 734.000 Z M 379.917 398.790 Q 363.891 362.155 316.489 362.155 L 252.383 362.155 L 252.383 655.845 L 316.489 655.845 Q 365.696 655.845 385.109 590.208 Q 395.718 554.183 395.718 504.421 Q 395.718 435.730 379.917 398.790 Z
        M 692.077 661.363 Q 718.321 661.363 734.693 654.418 Q 765.753 641.106 765.753 604.932 Q 765.753 583.807 750.343 572.232 Q 734.934 560.945 701.948 552.264 L 664.388 542.135 Q 609.011 527.087 587.823 509.434 Q 551.948 479.916 551.948 417.119 Q 551.948 359.820 586.619 321.910 Q 621.290 284.000 688.465 284.000 Q 744.565 284.000 784.172 319.740 Q 823.779 355.479 825.705 423.486 L 754.437 423.486 Q 752.510 384.997 726.507 368.791 Q 709.172 358.084 683.409 358.084 Q 654.757 358.084 637.662 371.974 Q 620.568 385.865 620.568 410.752 Q 620.568 433.614 637.422 444.900 Q 648.256 452.424 683.650 462.553 L 744.806 480.206 Q 785.015 491.781 805.480 511.170 Q 837.262 541.267 837.262 598.277 Q 837.262 656.733 800.063 695.367 Q 762.864 734.000 694.966 734.000 Q 625.624 734.000 585.896 695.945 Q 546.169 657.891 546.169 591.331 L 616.956 591.331 Q 620.327 620.559 630.198 635.029 Q 648.256 661.363 692.077 661.363 Z"/>
</svg>
